<mxfile host="app.diagrams.net" modified="2020-04-13T09:53:55.382Z" agent="5.0 (Windows NT 10.0; Win64; x64) AppleWebKit/537.36 (KHTML, like Gecko) Chrome/71.0.3578.85 Safari/537.36 Vivaldi/2.2.1388.34" etag="qzOH3zH5H1GKmGO29TKr" version="12.9.11" type="github">
  <diagram id="b4JocyOjUnilDcrLl7Rw" name="Page-1">
    <mxGraphModel dx="1559" dy="2674" grid="1" gridSize="10" guides="1" tooltips="1" connect="1" arrows="1" fold="1" page="1" pageScale="1" pageWidth="1169" pageHeight="1654" math="0" shadow="0">
      <root>
        <mxCell id="0" />
        <mxCell id="1" parent="0" />
        <mxCell id="mlky6LnuT3fTsB-rKjh9-20" style="edgeStyle=orthogonalEdgeStyle;rounded=0;orthogonalLoop=1;jettySize=auto;html=1;endArrow=none;endFill=0;" edge="1" parent="1" source="BM6KCVaAMcdC4MpgqQDZ-1" target="mlky6LnuT3fTsB-rKjh9-17">
          <mxGeometry relative="1" as="geometry" />
        </mxCell>
        <mxCell id="BM6KCVaAMcdC4MpgqQDZ-1" value="Moyen paiement" style="swimlane;fontStyle=0;childLayout=stackLayout;horizontal=1;startSize=26;horizontalStack=0;resizeParent=1;resizeParentMax=0;resizeLast=0;collapsible=1;marginBottom=0;align=center;fontSize=14;" parent="1" vertex="1">
          <mxGeometry x="280" y="-378" width="160" height="160" as="geometry" />
        </mxCell>
        <mxCell id="BM6KCVaAMcdC4MpgqQDZ-2" value="Nom affiche" style="shape=partialRectangle;top=0;left=0;right=0;bottom=1;align=left;verticalAlign=middle;fillColor=none;spacingLeft=34;spacingRight=4;overflow=hidden;rotatable=0;points=[[0,0.5],[1,0.5]];portConstraint=eastwest;dropTarget=0;fontStyle=5;fontSize=12;" parent="BM6KCVaAMcdC4MpgqQDZ-1" vertex="1">
          <mxGeometry y="26" width="160" height="30" as="geometry" />
        </mxCell>
        <mxCell id="BM6KCVaAMcdC4MpgqQDZ-3" value="PK" style="shape=partialRectangle;top=0;left=0;bottom=0;fillColor=none;align=left;verticalAlign=middle;spacingLeft=4;spacingRight=4;overflow=hidden;rotatable=0;points=[];portConstraint=eastwest;part=1;fontSize=12;" parent="BM6KCVaAMcdC4MpgqQDZ-2" vertex="1" connectable="0">
          <mxGeometry width="30" height="30" as="geometry" />
        </mxCell>
        <mxCell id="BM6KCVaAMcdC4MpgqQDZ-4" value="Type carte" style="shape=partialRectangle;top=0;left=0;right=0;bottom=0;align=left;verticalAlign=top;fillColor=none;spacingLeft=34;spacingRight=4;overflow=hidden;rotatable=0;points=[[0,0.5],[1,0.5]];portConstraint=eastwest;dropTarget=0;fontSize=12;" parent="BM6KCVaAMcdC4MpgqQDZ-1" vertex="1">
          <mxGeometry y="56" width="160" height="26" as="geometry" />
        </mxCell>
        <mxCell id="BM6KCVaAMcdC4MpgqQDZ-5" value="" style="shape=partialRectangle;top=0;left=0;bottom=0;fillColor=none;align=left;verticalAlign=top;spacingLeft=4;spacingRight=4;overflow=hidden;rotatable=0;points=[];portConstraint=eastwest;part=1;fontSize=12;" parent="BM6KCVaAMcdC4MpgqQDZ-4" vertex="1" connectable="0">
          <mxGeometry width="30" height="26" as="geometry" />
        </mxCell>
        <mxCell id="BM6KCVaAMcdC4MpgqQDZ-6" value="Numéro de carte" style="shape=partialRectangle;top=0;left=0;right=0;bottom=0;align=left;verticalAlign=top;fillColor=none;spacingLeft=34;spacingRight=4;overflow=hidden;rotatable=0;points=[[0,0.5],[1,0.5]];portConstraint=eastwest;dropTarget=0;fontSize=12;" parent="BM6KCVaAMcdC4MpgqQDZ-1" vertex="1">
          <mxGeometry y="82" width="160" height="26" as="geometry" />
        </mxCell>
        <mxCell id="BM6KCVaAMcdC4MpgqQDZ-7" value="" style="shape=partialRectangle;top=0;left=0;bottom=0;fillColor=none;align=left;verticalAlign=top;spacingLeft=4;spacingRight=4;overflow=hidden;rotatable=0;points=[];portConstraint=eastwest;part=1;fontSize=12;" parent="BM6KCVaAMcdC4MpgqQDZ-6" vertex="1" connectable="0">
          <mxGeometry width="30" height="26" as="geometry" />
        </mxCell>
        <mxCell id="BM6KCVaAMcdC4MpgqQDZ-8" value="Date expiration carte" style="shape=partialRectangle;top=0;left=0;right=0;bottom=0;align=left;verticalAlign=top;fillColor=none;spacingLeft=34;spacingRight=4;overflow=hidden;rotatable=0;points=[[0,0.5],[1,0.5]];portConstraint=eastwest;dropTarget=0;fontSize=12;" parent="BM6KCVaAMcdC4MpgqQDZ-1" vertex="1">
          <mxGeometry y="108" width="160" height="26" as="geometry" />
        </mxCell>
        <mxCell id="BM6KCVaAMcdC4MpgqQDZ-9" value="" style="shape=partialRectangle;top=0;left=0;bottom=0;fillColor=none;align=left;verticalAlign=top;spacingLeft=4;spacingRight=4;overflow=hidden;rotatable=0;points=[];portConstraint=eastwest;part=1;fontSize=12;" parent="BM6KCVaAMcdC4MpgqQDZ-8" vertex="1" connectable="0">
          <mxGeometry width="30" height="26" as="geometry" />
        </mxCell>
        <mxCell id="BM6KCVaAMcdC4MpgqQDZ-10" value="Code de sécurité" style="shape=partialRectangle;top=0;left=0;right=0;bottom=0;align=left;verticalAlign=top;fillColor=none;spacingLeft=34;spacingRight=4;overflow=hidden;rotatable=0;points=[[0,0.5],[1,0.5]];portConstraint=eastwest;dropTarget=0;fontSize=12;" parent="BM6KCVaAMcdC4MpgqQDZ-1" vertex="1">
          <mxGeometry y="134" width="160" height="26" as="geometry" />
        </mxCell>
        <mxCell id="BM6KCVaAMcdC4MpgqQDZ-11" value="" style="shape=partialRectangle;top=0;left=0;bottom=0;fillColor=none;align=left;verticalAlign=top;spacingLeft=4;spacingRight=4;overflow=hidden;rotatable=0;points=[];portConstraint=eastwest;part=1;fontSize=12;" parent="BM6KCVaAMcdC4MpgqQDZ-10" vertex="1" connectable="0">
          <mxGeometry width="30" height="26" as="geometry" />
        </mxCell>
        <mxCell id="BM6KCVaAMcdC4MpgqQDZ-12" value="Adresse" style="swimlane;fontStyle=0;childLayout=stackLayout;horizontal=1;startSize=26;horizontalStack=0;resizeParent=1;resizeParentMax=0;resizeLast=0;collapsible=1;marginBottom=0;align=center;fontSize=14;" parent="1" vertex="1">
          <mxGeometry x="520" y="-590" width="160" height="212" as="geometry" />
        </mxCell>
        <mxCell id="BM6KCVaAMcdC4MpgqQDZ-13" value="Nom prénom" style="shape=partialRectangle;top=0;left=0;right=0;bottom=1;align=left;verticalAlign=middle;fillColor=none;spacingLeft=34;spacingRight=4;overflow=hidden;rotatable=0;points=[[0,0.5],[1,0.5]];portConstraint=eastwest;dropTarget=0;fontStyle=5;fontSize=12;" parent="BM6KCVaAMcdC4MpgqQDZ-12" vertex="1">
          <mxGeometry y="26" width="160" height="30" as="geometry" />
        </mxCell>
        <mxCell id="BM6KCVaAMcdC4MpgqQDZ-14" value="PK" style="shape=partialRectangle;top=0;left=0;bottom=0;fillColor=none;align=left;verticalAlign=middle;spacingLeft=4;spacingRight=4;overflow=hidden;rotatable=0;points=[];portConstraint=eastwest;part=1;fontSize=12;" parent="BM6KCVaAMcdC4MpgqQDZ-13" vertex="1" connectable="0">
          <mxGeometry width="30" height="30" as="geometry" />
        </mxCell>
        <mxCell id="BM6KCVaAMcdC4MpgqQDZ-15" value="Ligne 1" style="shape=partialRectangle;top=0;left=0;right=0;bottom=0;align=left;verticalAlign=top;fillColor=none;spacingLeft=34;spacingRight=4;overflow=hidden;rotatable=0;points=[[0,0.5],[1,0.5]];portConstraint=eastwest;dropTarget=0;fontSize=12;" parent="BM6KCVaAMcdC4MpgqQDZ-12" vertex="1">
          <mxGeometry y="56" width="160" height="26" as="geometry" />
        </mxCell>
        <mxCell id="BM6KCVaAMcdC4MpgqQDZ-16" value="" style="shape=partialRectangle;top=0;left=0;bottom=0;fillColor=none;align=left;verticalAlign=top;spacingLeft=4;spacingRight=4;overflow=hidden;rotatable=0;points=[];portConstraint=eastwest;part=1;fontSize=12;" parent="BM6KCVaAMcdC4MpgqQDZ-15" vertex="1" connectable="0">
          <mxGeometry width="30" height="26" as="geometry" />
        </mxCell>
        <mxCell id="BM6KCVaAMcdC4MpgqQDZ-17" value="Ligne 2" style="shape=partialRectangle;top=0;left=0;right=0;bottom=0;align=left;verticalAlign=top;fillColor=none;spacingLeft=34;spacingRight=4;overflow=hidden;rotatable=0;points=[[0,0.5],[1,0.5]];portConstraint=eastwest;dropTarget=0;fontSize=12;" parent="BM6KCVaAMcdC4MpgqQDZ-12" vertex="1">
          <mxGeometry y="82" width="160" height="26" as="geometry" />
        </mxCell>
        <mxCell id="BM6KCVaAMcdC4MpgqQDZ-18" value="" style="shape=partialRectangle;top=0;left=0;bottom=0;fillColor=none;align=left;verticalAlign=top;spacingLeft=4;spacingRight=4;overflow=hidden;rotatable=0;points=[];portConstraint=eastwest;part=1;fontSize=12;" parent="BM6KCVaAMcdC4MpgqQDZ-17" vertex="1" connectable="0">
          <mxGeometry width="30" height="26" as="geometry" />
        </mxCell>
        <mxCell id="BM6KCVaAMcdC4MpgqQDZ-19" value="Ville" style="shape=partialRectangle;top=0;left=0;right=0;bottom=0;align=left;verticalAlign=top;fillColor=none;spacingLeft=34;spacingRight=4;overflow=hidden;rotatable=0;points=[[0,0.5],[1,0.5]];portConstraint=eastwest;dropTarget=0;fontSize=12;" parent="BM6KCVaAMcdC4MpgqQDZ-12" vertex="1">
          <mxGeometry y="108" width="160" height="26" as="geometry" />
        </mxCell>
        <mxCell id="BM6KCVaAMcdC4MpgqQDZ-20" value="" style="shape=partialRectangle;top=0;left=0;bottom=0;fillColor=none;align=left;verticalAlign=top;spacingLeft=4;spacingRight=4;overflow=hidden;rotatable=0;points=[];portConstraint=eastwest;part=1;fontSize=12;" parent="BM6KCVaAMcdC4MpgqQDZ-19" vertex="1" connectable="0">
          <mxGeometry width="30" height="26" as="geometry" />
        </mxCell>
        <mxCell id="CU4H_X6bAWHIYcG4jkGl-1" value="Code postal" style="shape=partialRectangle;top=0;left=0;right=0;bottom=0;align=left;verticalAlign=top;fillColor=none;spacingLeft=34;spacingRight=4;overflow=hidden;rotatable=0;points=[[0,0.5],[1,0.5]];portConstraint=eastwest;dropTarget=0;fontSize=12;" parent="BM6KCVaAMcdC4MpgqQDZ-12" vertex="1">
          <mxGeometry y="134" width="160" height="26" as="geometry" />
        </mxCell>
        <mxCell id="CU4H_X6bAWHIYcG4jkGl-2" value="" style="shape=partialRectangle;top=0;left=0;bottom=0;fillColor=none;align=left;verticalAlign=top;spacingLeft=4;spacingRight=4;overflow=hidden;rotatable=0;points=[];portConstraint=eastwest;part=1;fontSize=12;" parent="CU4H_X6bAWHIYcG4jkGl-1" vertex="1" connectable="0">
          <mxGeometry width="30" height="26" as="geometry" />
        </mxCell>
        <mxCell id="CU4H_X6bAWHIYcG4jkGl-3" value="Pays" style="shape=partialRectangle;top=0;left=0;right=0;bottom=0;align=left;verticalAlign=top;fillColor=none;spacingLeft=34;spacingRight=4;overflow=hidden;rotatable=0;points=[[0,0.5],[1,0.5]];portConstraint=eastwest;dropTarget=0;fontSize=12;" parent="BM6KCVaAMcdC4MpgqQDZ-12" vertex="1">
          <mxGeometry y="160" width="160" height="26" as="geometry" />
        </mxCell>
        <mxCell id="CU4H_X6bAWHIYcG4jkGl-4" value="" style="shape=partialRectangle;top=0;left=0;bottom=0;fillColor=none;align=left;verticalAlign=top;spacingLeft=4;spacingRight=4;overflow=hidden;rotatable=0;points=[];portConstraint=eastwest;part=1;fontSize=12;" parent="CU4H_X6bAWHIYcG4jkGl-3" vertex="1" connectable="0">
          <mxGeometry width="30" height="26" as="geometry" />
        </mxCell>
        <mxCell id="CU4H_X6bAWHIYcG4jkGl-5" value="Numéro tel client" style="shape=partialRectangle;top=0;left=0;right=0;bottom=0;align=left;verticalAlign=top;fillColor=none;spacingLeft=34;spacingRight=4;overflow=hidden;rotatable=0;points=[[0,0.5],[1,0.5]];portConstraint=eastwest;dropTarget=0;fontSize=12;" parent="BM6KCVaAMcdC4MpgqQDZ-12" vertex="1">
          <mxGeometry y="186" width="160" height="26" as="geometry" />
        </mxCell>
        <mxCell id="CU4H_X6bAWHIYcG4jkGl-6" value="" style="shape=partialRectangle;top=0;left=0;bottom=0;fillColor=none;align=left;verticalAlign=top;spacingLeft=4;spacingRight=4;overflow=hidden;rotatable=0;points=[];portConstraint=eastwest;part=1;fontSize=12;" parent="CU4H_X6bAWHIYcG4jkGl-5" vertex="1" connectable="0">
          <mxGeometry width="30" height="26" as="geometry" />
        </mxCell>
        <mxCell id="mlky6LnuT3fTsB-rKjh9-23" style="edgeStyle=orthogonalEdgeStyle;rounded=0;orthogonalLoop=1;jettySize=auto;html=1;endArrow=none;endFill=0;" edge="1" parent="1" source="CU4H_X6bAWHIYcG4jkGl-7" target="mlky6LnuT3fTsB-rKjh9-15">
          <mxGeometry relative="1" as="geometry" />
        </mxCell>
        <mxCell id="CU4H_X6bAWHIYcG4jkGl-7" value="Utilisateur" style="swimlane;fontStyle=0;childLayout=stackLayout;horizontal=1;startSize=26;horizontalStack=0;resizeParent=1;resizeParentMax=0;resizeLast=0;collapsible=1;marginBottom=0;align=center;fontSize=14;" parent="1" vertex="1">
          <mxGeometry x="280" y="-80" width="160" height="134" as="geometry" />
        </mxCell>
        <mxCell id="CU4H_X6bAWHIYcG4jkGl-8" value="Pseudo" style="shape=partialRectangle;top=0;left=0;right=0;bottom=1;align=left;verticalAlign=middle;fillColor=none;spacingLeft=34;spacingRight=4;overflow=hidden;rotatable=0;points=[[0,0.5],[1,0.5]];portConstraint=eastwest;dropTarget=0;fontStyle=5;fontSize=12;" parent="CU4H_X6bAWHIYcG4jkGl-7" vertex="1">
          <mxGeometry y="26" width="160" height="30" as="geometry" />
        </mxCell>
        <mxCell id="CU4H_X6bAWHIYcG4jkGl-9" value="PK" style="shape=partialRectangle;top=0;left=0;bottom=0;fillColor=none;align=left;verticalAlign=middle;spacingLeft=4;spacingRight=4;overflow=hidden;rotatable=0;points=[];portConstraint=eastwest;part=1;fontSize=12;" parent="CU4H_X6bAWHIYcG4jkGl-8" vertex="1" connectable="0">
          <mxGeometry width="30" height="30" as="geometry" />
        </mxCell>
        <mxCell id="CU4H_X6bAWHIYcG4jkGl-10" value="Adresse e-mail" style="shape=partialRectangle;top=0;left=0;right=0;bottom=0;align=left;verticalAlign=top;fillColor=none;spacingLeft=34;spacingRight=4;overflow=hidden;rotatable=0;points=[[0,0.5],[1,0.5]];portConstraint=eastwest;dropTarget=0;fontSize=12;" parent="CU4H_X6bAWHIYcG4jkGl-7" vertex="1">
          <mxGeometry y="56" width="160" height="26" as="geometry" />
        </mxCell>
        <mxCell id="CU4H_X6bAWHIYcG4jkGl-11" value="" style="shape=partialRectangle;top=0;left=0;bottom=0;fillColor=none;align=left;verticalAlign=top;spacingLeft=4;spacingRight=4;overflow=hidden;rotatable=0;points=[];portConstraint=eastwest;part=1;fontSize=12;" parent="CU4H_X6bAWHIYcG4jkGl-10" vertex="1" connectable="0">
          <mxGeometry width="30" height="26" as="geometry" />
        </mxCell>
        <mxCell id="CU4H_X6bAWHIYcG4jkGl-12" value="Mot de passe" style="shape=partialRectangle;top=0;left=0;right=0;bottom=0;align=left;verticalAlign=top;fillColor=none;spacingLeft=34;spacingRight=4;overflow=hidden;rotatable=0;points=[[0,0.5],[1,0.5]];portConstraint=eastwest;dropTarget=0;fontSize=12;" parent="CU4H_X6bAWHIYcG4jkGl-7" vertex="1">
          <mxGeometry y="82" width="160" height="26" as="geometry" />
        </mxCell>
        <mxCell id="CU4H_X6bAWHIYcG4jkGl-13" value="" style="shape=partialRectangle;top=0;left=0;bottom=0;fillColor=none;align=left;verticalAlign=top;spacingLeft=4;spacingRight=4;overflow=hidden;rotatable=0;points=[];portConstraint=eastwest;part=1;fontSize=12;" parent="CU4H_X6bAWHIYcG4jkGl-12" vertex="1" connectable="0">
          <mxGeometry width="30" height="26" as="geometry" />
        </mxCell>
        <mxCell id="CU4H_X6bAWHIYcG4jkGl-14" value="Nom prénom" style="shape=partialRectangle;top=0;left=0;right=0;bottom=0;align=left;verticalAlign=top;fillColor=none;spacingLeft=34;spacingRight=4;overflow=hidden;rotatable=0;points=[[0,0.5],[1,0.5]];portConstraint=eastwest;dropTarget=0;fontSize=12;" parent="CU4H_X6bAWHIYcG4jkGl-7" vertex="1">
          <mxGeometry y="108" width="160" height="26" as="geometry" />
        </mxCell>
        <mxCell id="CU4H_X6bAWHIYcG4jkGl-15" value="" style="shape=partialRectangle;top=0;left=0;bottom=0;fillColor=none;align=left;verticalAlign=top;spacingLeft=4;spacingRight=4;overflow=hidden;rotatable=0;points=[];portConstraint=eastwest;part=1;fontSize=12;" parent="CU4H_X6bAWHIYcG4jkGl-14" vertex="1" connectable="0">
          <mxGeometry width="30" height="26" as="geometry" />
        </mxCell>
        <mxCell id="CU4H_X6bAWHIYcG4jkGl-20" value="Boutique" style="swimlane;fontStyle=0;childLayout=stackLayout;horizontal=1;startSize=26;horizontalStack=0;resizeParent=1;resizeParentMax=0;resizeLast=0;collapsible=1;marginBottom=0;align=center;fontSize=14;" parent="1" vertex="1">
          <mxGeometry x="280" y="220" width="160" height="108" as="geometry" />
        </mxCell>
        <mxCell id="CU4H_X6bAWHIYcG4jkGl-21" value="Nom de boutique" style="shape=partialRectangle;top=0;left=0;right=0;bottom=1;align=left;verticalAlign=middle;fillColor=none;spacingLeft=34;spacingRight=4;overflow=hidden;rotatable=0;points=[[0,0.5],[1,0.5]];portConstraint=eastwest;dropTarget=0;fontStyle=5;fontSize=12;" parent="CU4H_X6bAWHIYcG4jkGl-20" vertex="1">
          <mxGeometry y="26" width="160" height="30" as="geometry" />
        </mxCell>
        <mxCell id="CU4H_X6bAWHIYcG4jkGl-22" value="PK" style="shape=partialRectangle;top=0;left=0;bottom=0;fillColor=none;align=left;verticalAlign=middle;spacingLeft=4;spacingRight=4;overflow=hidden;rotatable=0;points=[];portConstraint=eastwest;part=1;fontSize=12;" parent="CU4H_X6bAWHIYcG4jkGl-21" vertex="1" connectable="0">
          <mxGeometry width="30" height="30" as="geometry" />
        </mxCell>
        <mxCell id="CU4H_X6bAWHIYcG4jkGl-23" value="Photo de profil" style="shape=partialRectangle;top=0;left=0;right=0;bottom=0;align=left;verticalAlign=top;fillColor=none;spacingLeft=34;spacingRight=4;overflow=hidden;rotatable=0;points=[[0,0.5],[1,0.5]];portConstraint=eastwest;dropTarget=0;fontSize=12;" parent="CU4H_X6bAWHIYcG4jkGl-20" vertex="1">
          <mxGeometry y="56" width="160" height="26" as="geometry" />
        </mxCell>
        <mxCell id="CU4H_X6bAWHIYcG4jkGl-24" value="" style="shape=partialRectangle;top=0;left=0;bottom=0;fillColor=none;align=left;verticalAlign=top;spacingLeft=4;spacingRight=4;overflow=hidden;rotatable=0;points=[];portConstraint=eastwest;part=1;fontSize=12;" parent="CU4H_X6bAWHIYcG4jkGl-23" vertex="1" connectable="0">
          <mxGeometry width="30" height="26" as="geometry" />
        </mxCell>
        <mxCell id="CU4H_X6bAWHIYcG4jkGl-25" value="Image de fond" style="shape=partialRectangle;top=0;left=0;right=0;bottom=0;align=left;verticalAlign=top;fillColor=none;spacingLeft=34;spacingRight=4;overflow=hidden;rotatable=0;points=[[0,0.5],[1,0.5]];portConstraint=eastwest;dropTarget=0;fontSize=12;" parent="CU4H_X6bAWHIYcG4jkGl-20" vertex="1">
          <mxGeometry y="82" width="160" height="26" as="geometry" />
        </mxCell>
        <mxCell id="CU4H_X6bAWHIYcG4jkGl-26" value="" style="shape=partialRectangle;top=0;left=0;bottom=0;fillColor=none;align=left;verticalAlign=top;spacingLeft=4;spacingRight=4;overflow=hidden;rotatable=0;points=[];portConstraint=eastwest;part=1;fontSize=12;" parent="CU4H_X6bAWHIYcG4jkGl-25" vertex="1" connectable="0">
          <mxGeometry width="30" height="26" as="geometry" />
        </mxCell>
        <mxCell id="CU4H_X6bAWHIYcG4jkGl-33" value="Article" style="swimlane;fontStyle=0;childLayout=stackLayout;horizontal=1;startSize=26;horizontalStack=0;resizeParent=1;resizeParentMax=0;resizeLast=0;collapsible=1;marginBottom=0;align=center;fontSize=14;" parent="1" vertex="1">
          <mxGeometry x="280" y="540" width="160" height="186" as="geometry" />
        </mxCell>
        <mxCell id="CU4H_X6bAWHIYcG4jkGl-34" value="Numéro ID " style="shape=partialRectangle;top=0;left=0;right=0;bottom=1;align=left;verticalAlign=middle;fillColor=none;spacingLeft=34;spacingRight=4;overflow=hidden;rotatable=0;points=[[0,0.5],[1,0.5]];portConstraint=eastwest;dropTarget=0;fontStyle=5;fontSize=12;" parent="CU4H_X6bAWHIYcG4jkGl-33" vertex="1">
          <mxGeometry y="26" width="160" height="30" as="geometry" />
        </mxCell>
        <mxCell id="CU4H_X6bAWHIYcG4jkGl-35" value="PK" style="shape=partialRectangle;top=0;left=0;bottom=0;fillColor=none;align=left;verticalAlign=middle;spacingLeft=4;spacingRight=4;overflow=hidden;rotatable=0;points=[];portConstraint=eastwest;part=1;fontSize=12;" parent="CU4H_X6bAWHIYcG4jkGl-34" vertex="1" connectable="0">
          <mxGeometry width="30" height="30" as="geometry" />
        </mxCell>
        <mxCell id="CU4H_X6bAWHIYcG4jkGl-36" value="Nom objet" style="shape=partialRectangle;top=0;left=0;right=0;bottom=0;align=left;verticalAlign=top;fillColor=none;spacingLeft=34;spacingRight=4;overflow=hidden;rotatable=0;points=[[0,0.5],[1,0.5]];portConstraint=eastwest;dropTarget=0;fontSize=12;" parent="CU4H_X6bAWHIYcG4jkGl-33" vertex="1">
          <mxGeometry y="56" width="160" height="26" as="geometry" />
        </mxCell>
        <mxCell id="CU4H_X6bAWHIYcG4jkGl-37" value="" style="shape=partialRectangle;top=0;left=0;bottom=0;fillColor=none;align=left;verticalAlign=top;spacingLeft=4;spacingRight=4;overflow=hidden;rotatable=0;points=[];portConstraint=eastwest;part=1;fontSize=12;" parent="CU4H_X6bAWHIYcG4jkGl-36" vertex="1" connectable="0">
          <mxGeometry width="30" height="26" as="geometry" />
        </mxCell>
        <mxCell id="CU4H_X6bAWHIYcG4jkGl-38" value="Prix" style="shape=partialRectangle;top=0;left=0;right=0;bottom=0;align=left;verticalAlign=top;fillColor=none;spacingLeft=34;spacingRight=4;overflow=hidden;rotatable=0;points=[[0,0.5],[1,0.5]];portConstraint=eastwest;dropTarget=0;fontSize=12;" parent="CU4H_X6bAWHIYcG4jkGl-33" vertex="1">
          <mxGeometry y="82" width="160" height="26" as="geometry" />
        </mxCell>
        <mxCell id="CU4H_X6bAWHIYcG4jkGl-39" value="" style="shape=partialRectangle;top=0;left=0;bottom=0;fillColor=none;align=left;verticalAlign=top;spacingLeft=4;spacingRight=4;overflow=hidden;rotatable=0;points=[];portConstraint=eastwest;part=1;fontSize=12;" parent="CU4H_X6bAWHIYcG4jkGl-38" vertex="1" connectable="0">
          <mxGeometry width="30" height="26" as="geometry" />
        </mxCell>
        <mxCell id="CU4H_X6bAWHIYcG4jkGl-40" value="Photos" style="shape=partialRectangle;top=0;left=0;right=0;bottom=0;align=left;verticalAlign=top;fillColor=none;spacingLeft=34;spacingRight=4;overflow=hidden;rotatable=0;points=[[0,0.5],[1,0.5]];portConstraint=eastwest;dropTarget=0;fontSize=12;" parent="CU4H_X6bAWHIYcG4jkGl-33" vertex="1">
          <mxGeometry y="108" width="160" height="26" as="geometry" />
        </mxCell>
        <mxCell id="CU4H_X6bAWHIYcG4jkGl-41" value="" style="shape=partialRectangle;top=0;left=0;bottom=0;fillColor=none;align=left;verticalAlign=top;spacingLeft=4;spacingRight=4;overflow=hidden;rotatable=0;points=[];portConstraint=eastwest;part=1;fontSize=12;" parent="CU4H_X6bAWHIYcG4jkGl-40" vertex="1" connectable="0">
          <mxGeometry width="30" height="26" as="geometry" />
        </mxCell>
        <mxCell id="CU4H_X6bAWHIYcG4jkGl-44" value="Catégorie" style="shape=partialRectangle;top=0;left=0;right=0;bottom=0;align=left;verticalAlign=top;fillColor=none;spacingLeft=34;spacingRight=4;overflow=hidden;rotatable=0;points=[[0,0.5],[1,0.5]];portConstraint=eastwest;dropTarget=0;fontSize=12;" parent="CU4H_X6bAWHIYcG4jkGl-33" vertex="1">
          <mxGeometry y="134" width="160" height="26" as="geometry" />
        </mxCell>
        <mxCell id="CU4H_X6bAWHIYcG4jkGl-45" value="" style="shape=partialRectangle;top=0;left=0;bottom=0;fillColor=none;align=left;verticalAlign=top;spacingLeft=4;spacingRight=4;overflow=hidden;rotatable=0;points=[];portConstraint=eastwest;part=1;fontSize=12;" parent="CU4H_X6bAWHIYcG4jkGl-44" vertex="1" connectable="0">
          <mxGeometry width="30" height="26" as="geometry" />
        </mxCell>
        <mxCell id="CU4H_X6bAWHIYcG4jkGl-46" value="Type annonce" style="shape=partialRectangle;top=0;left=0;right=0;bottom=0;align=left;verticalAlign=top;fillColor=none;spacingLeft=34;spacingRight=4;overflow=hidden;rotatable=0;points=[[0,0.5],[1,0.5]];portConstraint=eastwest;dropTarget=0;fontSize=12;" parent="CU4H_X6bAWHIYcG4jkGl-33" vertex="1">
          <mxGeometry y="160" width="160" height="26" as="geometry" />
        </mxCell>
        <mxCell id="CU4H_X6bAWHIYcG4jkGl-47" value="" style="shape=partialRectangle;top=0;left=0;bottom=0;fillColor=none;align=left;verticalAlign=top;spacingLeft=4;spacingRight=4;overflow=hidden;rotatable=0;points=[];portConstraint=eastwest;part=1;fontSize=12;" parent="CU4H_X6bAWHIYcG4jkGl-46" vertex="1" connectable="0">
          <mxGeometry width="30" height="26" as="geometry" />
        </mxCell>
        <mxCell id="CU4H_X6bAWHIYcG4jkGl-60" value="Enchère" style="swimlane;fontStyle=0;childLayout=stackLayout;horizontal=1;startSize=26;horizontalStack=0;resizeParent=1;resizeParentMax=0;resizeLast=0;collapsible=1;marginBottom=0;align=center;fontSize=14;" parent="1" vertex="1">
          <mxGeometry x="686" y="563" width="160" height="108" as="geometry" />
        </mxCell>
        <mxCell id="CU4H_X6bAWHIYcG4jkGl-61" value="ID Enchère" style="shape=partialRectangle;top=0;left=0;right=0;bottom=1;align=left;verticalAlign=middle;fillColor=none;spacingLeft=34;spacingRight=4;overflow=hidden;rotatable=0;points=[[0,0.5],[1,0.5]];portConstraint=eastwest;dropTarget=0;fontStyle=5;fontSize=12;" parent="CU4H_X6bAWHIYcG4jkGl-60" vertex="1">
          <mxGeometry y="26" width="160" height="30" as="geometry" />
        </mxCell>
        <mxCell id="CU4H_X6bAWHIYcG4jkGl-62" value="PK" style="shape=partialRectangle;top=0;left=0;bottom=0;fillColor=none;align=left;verticalAlign=middle;spacingLeft=4;spacingRight=4;overflow=hidden;rotatable=0;points=[];portConstraint=eastwest;part=1;fontSize=12;" parent="CU4H_X6bAWHIYcG4jkGl-61" vertex="1" connectable="0">
          <mxGeometry width="30" height="30" as="geometry" />
        </mxCell>
        <mxCell id="CU4H_X6bAWHIYcG4jkGl-63" value="Prix" style="shape=partialRectangle;top=0;left=0;right=0;bottom=0;align=left;verticalAlign=top;fillColor=none;spacingLeft=34;spacingRight=4;overflow=hidden;rotatable=0;points=[[0,0.5],[1,0.5]];portConstraint=eastwest;dropTarget=0;fontSize=12;" parent="CU4H_X6bAWHIYcG4jkGl-60" vertex="1">
          <mxGeometry y="56" width="160" height="26" as="geometry" />
        </mxCell>
        <mxCell id="CU4H_X6bAWHIYcG4jkGl-64" value="" style="shape=partialRectangle;top=0;left=0;bottom=0;fillColor=none;align=left;verticalAlign=top;spacingLeft=4;spacingRight=4;overflow=hidden;rotatable=0;points=[];portConstraint=eastwest;part=1;fontSize=12;" parent="CU4H_X6bAWHIYcG4jkGl-63" vertex="1" connectable="0">
          <mxGeometry width="30" height="26" as="geometry" />
        </mxCell>
        <mxCell id="mlky6LnuT3fTsB-rKjh9-100" value="Type annonce" style="shape=partialRectangle;top=0;left=0;right=0;bottom=0;align=left;verticalAlign=top;fillColor=none;spacingLeft=34;spacingRight=4;overflow=hidden;rotatable=0;points=[[0,0.5],[1,0.5]];portConstraint=eastwest;dropTarget=0;fontSize=12;" vertex="1" parent="CU4H_X6bAWHIYcG4jkGl-60">
          <mxGeometry y="82" width="160" height="26" as="geometry" />
        </mxCell>
        <mxCell id="mlky6LnuT3fTsB-rKjh9-101" value="" style="shape=partialRectangle;top=0;left=0;bottom=0;fillColor=none;align=left;verticalAlign=top;spacingLeft=4;spacingRight=4;overflow=hidden;rotatable=0;points=[];portConstraint=eastwest;part=1;fontSize=12;" vertex="1" connectable="0" parent="mlky6LnuT3fTsB-rKjh9-100">
          <mxGeometry width="30" height="26" as="geometry" />
        </mxCell>
        <mxCell id="mlky6LnuT3fTsB-rKjh9-33" value="" style="edgeStyle=orthogonalEdgeStyle;rounded=0;orthogonalLoop=1;jettySize=auto;html=1;endArrow=none;endFill=0;" edge="1" parent="1" source="mlky6LnuT3fTsB-rKjh9-1" target="CU4H_X6bAWHIYcG4jkGl-38">
          <mxGeometry relative="1" as="geometry" />
        </mxCell>
        <mxCell id="mlky6LnuT3fTsB-rKjh9-36" value="" style="edgeStyle=orthogonalEdgeStyle;rounded=0;orthogonalLoop=1;jettySize=auto;html=1;endArrow=none;endFill=0;entryX=0.011;entryY=0.613;entryDx=0;entryDy=0;entryPerimeter=0;" edge="1" parent="1" target="CU4H_X6bAWHIYcG4jkGl-63">
          <mxGeometry relative="1" as="geometry">
            <mxPoint x="636" y="635" as="sourcePoint" />
          </mxGeometry>
        </mxCell>
        <mxCell id="mlky6LnuT3fTsB-rKjh9-1" value="Reçoit plusieurs enchères" style="shape=rhombus;perimeter=rhombusPerimeter;whiteSpace=wrap;html=1;align=center;" vertex="1" parent="1">
          <mxGeometry x="500" y="598.5" width="150" height="73" as="geometry" />
        </mxCell>
        <mxCell id="mlky6LnuT3fTsB-rKjh9-27" value="" style="edgeStyle=orthogonalEdgeStyle;rounded=0;orthogonalLoop=1;jettySize=auto;html=1;endArrow=none;endFill=0;entryX=0.491;entryY=1.165;entryDx=0;entryDy=0;entryPerimeter=0;" edge="1" parent="1" source="mlky6LnuT3fTsB-rKjh9-3" target="CU4H_X6bAWHIYcG4jkGl-25">
          <mxGeometry relative="1" as="geometry">
            <mxPoint x="359.1999999999998" y="354.2080000000001" as="targetPoint" />
            <Array as="points">
              <mxPoint x="360" y="382" />
              <mxPoint x="359" y="382" />
            </Array>
          </mxGeometry>
        </mxCell>
        <mxCell id="mlky6LnuT3fTsB-rKjh9-28" value="" style="edgeStyle=orthogonalEdgeStyle;rounded=0;orthogonalLoop=1;jettySize=auto;html=1;endArrow=none;endFill=0;" edge="1" parent="1" source="mlky6LnuT3fTsB-rKjh9-3">
          <mxGeometry relative="1" as="geometry">
            <mxPoint x="360" y="540" as="targetPoint" />
          </mxGeometry>
        </mxCell>
        <mxCell id="mlky6LnuT3fTsB-rKjh9-3" value="Met en vente" style="shape=rhombus;perimeter=rhombusPerimeter;whiteSpace=wrap;html=1;align=center;" vertex="1" parent="1">
          <mxGeometry x="300" y="410" width="120" height="60" as="geometry" />
        </mxCell>
        <mxCell id="mlky6LnuT3fTsB-rKjh9-25" value="" style="edgeStyle=orthogonalEdgeStyle;rounded=0;orthogonalLoop=1;jettySize=auto;html=1;endArrow=none;endFill=0;entryX=0.5;entryY=0;entryDx=0;entryDy=0;" edge="1" parent="1" source="mlky6LnuT3fTsB-rKjh9-15" target="CU4H_X6bAWHIYcG4jkGl-20">
          <mxGeometry relative="1" as="geometry">
            <mxPoint x="360" y="200" as="targetPoint" />
            <Array as="points" />
          </mxGeometry>
        </mxCell>
        <mxCell id="mlky6LnuT3fTsB-rKjh9-15" value="Administre" style="shape=rhombus;perimeter=rhombusPerimeter;whiteSpace=wrap;html=1;align=center;" vertex="1" parent="1">
          <mxGeometry x="300" y="100" width="120" height="60" as="geometry" />
        </mxCell>
        <mxCell id="mlky6LnuT3fTsB-rKjh9-29" value="" style="edgeStyle=orthogonalEdgeStyle;rounded=0;orthogonalLoop=1;jettySize=auto;html=1;endArrow=none;endFill=0;entryX=1;entryY=0.5;entryDx=0;entryDy=0;" edge="1" parent="1" source="mlky6LnuT3fTsB-rKjh9-16" target="CU4H_X6bAWHIYcG4jkGl-10">
          <mxGeometry relative="1" as="geometry">
            <mxPoint x="594" y="-13" as="targetPoint" />
          </mxGeometry>
        </mxCell>
        <mxCell id="mlky6LnuT3fTsB-rKjh9-30" value="" style="edgeStyle=orthogonalEdgeStyle;rounded=0;orthogonalLoop=1;jettySize=auto;html=1;endArrow=none;endFill=0;" edge="1" parent="1" source="mlky6LnuT3fTsB-rKjh9-16">
          <mxGeometry relative="1" as="geometry">
            <mxPoint x="760" y="560" as="targetPoint" />
          </mxGeometry>
        </mxCell>
        <mxCell id="mlky6LnuT3fTsB-rKjh9-16" value="Place une enchère" style="shape=rhombus;perimeter=rhombusPerimeter;whiteSpace=wrap;html=1;align=center;" vertex="1" parent="1">
          <mxGeometry x="700" y="-41" width="120" height="60" as="geometry" />
        </mxCell>
        <mxCell id="mlky6LnuT3fTsB-rKjh9-21" style="edgeStyle=orthogonalEdgeStyle;rounded=0;orthogonalLoop=1;jettySize=auto;html=1;endArrow=none;endFill=0;" edge="1" parent="1" source="mlky6LnuT3fTsB-rKjh9-17" target="CU4H_X6bAWHIYcG4jkGl-7">
          <mxGeometry relative="1" as="geometry" />
        </mxCell>
        <mxCell id="mlky6LnuT3fTsB-rKjh9-17" value="Paye avec" style="shape=rhombus;perimeter=rhombusPerimeter;whiteSpace=wrap;html=1;align=center;" vertex="1" parent="1">
          <mxGeometry x="300" y="-190" width="120" height="60" as="geometry" />
        </mxCell>
        <mxCell id="mlky6LnuT3fTsB-rKjh9-31" value="" style="edgeStyle=orthogonalEdgeStyle;rounded=0;orthogonalLoop=1;jettySize=auto;html=1;endArrow=none;endFill=0;entryX=0.093;entryY=0.914;entryDx=0;entryDy=0;entryPerimeter=0;" edge="1" parent="1" source="mlky6LnuT3fTsB-rKjh9-18" target="mlky6LnuT3fTsB-rKjh9-46">
          <mxGeometry relative="1" as="geometry">
            <mxPoint x="380" y="-31" as="targetPoint" />
            <Array as="points">
              <mxPoint x="600" y="-32" />
            </Array>
          </mxGeometry>
        </mxCell>
        <mxCell id="mlky6LnuT3fTsB-rKjh9-32" value="" style="edgeStyle=orthogonalEdgeStyle;rounded=0;orthogonalLoop=1;jettySize=auto;html=1;endArrow=none;endFill=0;" edge="1" parent="1" source="mlky6LnuT3fTsB-rKjh9-18" target="CU4H_X6bAWHIYcG4jkGl-5">
          <mxGeometry relative="1" as="geometry">
            <Array as="points">
              <mxPoint x="600" y="-290" />
              <mxPoint x="600" y="-290" />
            </Array>
          </mxGeometry>
        </mxCell>
        <mxCell id="mlky6LnuT3fTsB-rKjh9-18" value="Habite à" style="shape=rhombus;perimeter=rhombusPerimeter;whiteSpace=wrap;html=1;align=center;" vertex="1" parent="1">
          <mxGeometry x="540" y="-228" width="120" height="60" as="geometry" />
        </mxCell>
        <mxCell id="mlky6LnuT3fTsB-rKjh9-37" value="1" style="text;html=1;align=center;verticalAlign=middle;resizable=0;points=[];autosize=1;" vertex="1" parent="1">
          <mxGeometry x="440" y="-1" width="20" height="20" as="geometry" />
        </mxCell>
        <mxCell id="mlky6LnuT3fTsB-rKjh9-40" value="n" style="text;html=1;align=center;verticalAlign=middle;resizable=0;points=[];autosize=1;" vertex="1" parent="1">
          <mxGeometry x="766" y="540" width="20" height="20" as="geometry" />
        </mxCell>
        <mxCell id="mlky6LnuT3fTsB-rKjh9-42" value="1" style="text;html=1;align=center;verticalAlign=middle;resizable=0;points=[];autosize=1;" vertex="1" parent="1">
          <mxGeometry x="450" y="610" width="20" height="20" as="geometry" />
        </mxCell>
        <mxCell id="mlky6LnuT3fTsB-rKjh9-43" value="n" style="text;html=1;align=center;verticalAlign=middle;resizable=0;points=[];autosize=1;" vertex="1" parent="1">
          <mxGeometry x="660" y="610" width="20" height="20" as="geometry" />
        </mxCell>
        <mxCell id="mlky6LnuT3fTsB-rKjh9-44" value="1" style="text;html=1;align=center;verticalAlign=middle;resizable=0;points=[];autosize=1;" vertex="1" parent="1">
          <mxGeometry x="360" y="-100" width="20" height="20" as="geometry" />
        </mxCell>
        <mxCell id="mlky6LnuT3fTsB-rKjh9-45" value="n" style="text;html=1;align=center;verticalAlign=middle;resizable=0;points=[];autosize=1;" vertex="1" parent="1">
          <mxGeometry x="360" y="-218" width="20" height="20" as="geometry" />
        </mxCell>
        <mxCell id="mlky6LnuT3fTsB-rKjh9-46" value="1" style="text;html=1;align=center;verticalAlign=middle;resizable=0;points=[];autosize=1;" vertex="1" parent="1">
          <mxGeometry x="440" y="-50" width="20" height="20" as="geometry" />
        </mxCell>
        <mxCell id="mlky6LnuT3fTsB-rKjh9-47" value="n" style="text;html=1;align=center;verticalAlign=middle;resizable=0;points=[];autosize=1;" vertex="1" parent="1">
          <mxGeometry x="575" y="-378" width="20" height="20" as="geometry" />
        </mxCell>
        <mxCell id="mlky6LnuT3fTsB-rKjh9-48" value="1" style="text;html=1;align=center;verticalAlign=middle;resizable=0;points=[];autosize=1;" vertex="1" parent="1">
          <mxGeometry x="340" y="54" width="20" height="20" as="geometry" />
        </mxCell>
        <mxCell id="mlky6LnuT3fTsB-rKjh9-49" value="1" style="text;html=1;align=center;verticalAlign=middle;resizable=0;points=[];autosize=1;" vertex="1" parent="1">
          <mxGeometry x="340" y="200" width="20" height="20" as="geometry" />
        </mxCell>
        <mxCell id="mlky6LnuT3fTsB-rKjh9-51" value="Achat" style="swimlane;fontStyle=0;childLayout=stackLayout;horizontal=1;startSize=26;horizontalStack=0;resizeParent=1;resizeParentMax=0;resizeLast=0;collapsible=1;marginBottom=0;align=center;fontSize=14;" vertex="1" parent="1">
          <mxGeometry x="50" y="-80" width="170" height="134" as="geometry" />
        </mxCell>
        <mxCell id="mlky6LnuT3fTsB-rKjh9-52" value="ID Achat" style="shape=partialRectangle;top=0;left=0;right=0;bottom=1;align=left;verticalAlign=middle;fillColor=none;spacingLeft=34;spacingRight=4;overflow=hidden;rotatable=0;points=[[0,0.5],[1,0.5]];portConstraint=eastwest;dropTarget=0;fontStyle=5;fontSize=12;" vertex="1" parent="mlky6LnuT3fTsB-rKjh9-51">
          <mxGeometry y="26" width="170" height="30" as="geometry" />
        </mxCell>
        <mxCell id="mlky6LnuT3fTsB-rKjh9-53" value="PK" style="shape=partialRectangle;top=0;left=0;bottom=0;fillColor=none;align=left;verticalAlign=middle;spacingLeft=4;spacingRight=4;overflow=hidden;rotatable=0;points=[];portConstraint=eastwest;part=1;fontSize=12;" vertex="1" connectable="0" parent="mlky6LnuT3fTsB-rKjh9-52">
          <mxGeometry width="30" height="30" as="geometry" />
        </mxCell>
        <mxCell id="mlky6LnuT3fTsB-rKjh9-75" value="Nom article" style="shape=partialRectangle;top=0;left=0;right=0;bottom=0;align=left;verticalAlign=top;fillColor=none;spacingLeft=34;spacingRight=4;overflow=hidden;rotatable=0;points=[[0,0.5],[1,0.5]];portConstraint=eastwest;dropTarget=0;fontSize=12;" vertex="1" parent="mlky6LnuT3fTsB-rKjh9-51">
          <mxGeometry y="56" width="170" height="26" as="geometry" />
        </mxCell>
        <mxCell id="mlky6LnuT3fTsB-rKjh9-76" value="" style="shape=partialRectangle;top=0;left=0;bottom=0;fillColor=none;align=left;verticalAlign=top;spacingLeft=4;spacingRight=4;overflow=hidden;rotatable=0;points=[];portConstraint=eastwest;part=1;fontSize=12;" vertex="1" connectable="0" parent="mlky6LnuT3fTsB-rKjh9-75">
          <mxGeometry width="30" height="26" as="geometry" />
        </mxCell>
        <mxCell id="mlky6LnuT3fTsB-rKjh9-77" value="Date d&#39;achat" style="shape=partialRectangle;top=0;left=0;right=0;bottom=0;align=left;verticalAlign=top;fillColor=none;spacingLeft=34;spacingRight=4;overflow=hidden;rotatable=0;points=[[0,0.5],[1,0.5]];portConstraint=eastwest;dropTarget=0;fontSize=12;" vertex="1" parent="mlky6LnuT3fTsB-rKjh9-51">
          <mxGeometry y="82" width="170" height="26" as="geometry" />
        </mxCell>
        <mxCell id="mlky6LnuT3fTsB-rKjh9-78" value="" style="shape=partialRectangle;top=0;left=0;bottom=0;fillColor=none;align=left;verticalAlign=top;spacingLeft=4;spacingRight=4;overflow=hidden;rotatable=0;points=[];portConstraint=eastwest;part=1;fontSize=12;" vertex="1" connectable="0" parent="mlky6LnuT3fTsB-rKjh9-77">
          <mxGeometry width="30" height="26" as="geometry" />
        </mxCell>
        <mxCell id="mlky6LnuT3fTsB-rKjh9-95" value="Photo" style="shape=partialRectangle;top=0;left=0;right=0;bottom=0;align=left;verticalAlign=top;fillColor=none;spacingLeft=34;spacingRight=4;overflow=hidden;rotatable=0;points=[[0,0.5],[1,0.5]];portConstraint=eastwest;dropTarget=0;fontSize=12;" vertex="1" parent="mlky6LnuT3fTsB-rKjh9-51">
          <mxGeometry y="108" width="170" height="26" as="geometry" />
        </mxCell>
        <mxCell id="mlky6LnuT3fTsB-rKjh9-96" value="" style="shape=partialRectangle;top=0;left=0;bottom=0;fillColor=none;align=left;verticalAlign=top;spacingLeft=4;spacingRight=4;overflow=hidden;rotatable=0;points=[];portConstraint=eastwest;part=1;fontSize=12;" vertex="1" connectable="0" parent="mlky6LnuT3fTsB-rKjh9-95">
          <mxGeometry width="30" height="26" as="geometry" />
        </mxCell>
        <mxCell id="mlky6LnuT3fTsB-rKjh9-63" value="" style="edgeStyle=orthogonalEdgeStyle;rounded=0;orthogonalLoop=1;jettySize=auto;html=1;endArrow=none;endFill=0;entryX=0.01;entryY=-0.423;entryDx=0;entryDy=0;entryPerimeter=0;" edge="1" parent="1" source="mlky6LnuT3fTsB-rKjh9-62" target="BM6KCVaAMcdC4MpgqQDZ-17">
          <mxGeometry relative="1" as="geometry">
            <mxPoint x="240" y="-520" as="targetPoint" />
          </mxGeometry>
        </mxCell>
        <mxCell id="mlky6LnuT3fTsB-rKjh9-64" value="" style="edgeStyle=orthogonalEdgeStyle;rounded=0;orthogonalLoop=1;jettySize=auto;html=1;endArrow=none;endFill=0;entryX=0.5;entryY=0;entryDx=0;entryDy=0;" edge="1" parent="1" source="mlky6LnuT3fTsB-rKjh9-62" target="mlky6LnuT3fTsB-rKjh9-51">
          <mxGeometry relative="1" as="geometry">
            <mxPoint x="100" y="-410" as="targetPoint" />
            <Array as="points">
              <mxPoint x="100" y="-80" />
            </Array>
          </mxGeometry>
        </mxCell>
        <mxCell id="mlky6LnuT3fTsB-rKjh9-62" value="Livre à" style="shape=rhombus;perimeter=rhombusPerimeter;whiteSpace=wrap;html=1;align=center;" vertex="1" parent="1">
          <mxGeometry x="40" y="-550" width="120" height="60" as="geometry" />
        </mxCell>
        <mxCell id="mlky6LnuT3fTsB-rKjh9-67" value="" style="edgeStyle=orthogonalEdgeStyle;rounded=0;orthogonalLoop=1;jettySize=auto;html=1;endArrow=none;endFill=0;entryX=1;entryY=0;entryDx=0;entryDy=0;" edge="1" parent="1" source="mlky6LnuT3fTsB-rKjh9-65" target="mlky6LnuT3fTsB-rKjh9-51">
          <mxGeometry relative="1" as="geometry">
            <mxPoint x="180" y="-200" as="targetPoint" />
            <Array as="points">
              <mxPoint x="180" y="-80" />
            </Array>
          </mxGeometry>
        </mxCell>
        <mxCell id="mlky6LnuT3fTsB-rKjh9-65" value="Paye avec" style="shape=rhombus;perimeter=rhombusPerimeter;whiteSpace=wrap;html=1;align=center;" vertex="1" parent="1">
          <mxGeometry x="120" y="-340" width="120" height="60" as="geometry" />
        </mxCell>
        <mxCell id="mlky6LnuT3fTsB-rKjh9-66" value="" style="endArrow=none;html=1;exitX=1;exitY=0.5;exitDx=0;exitDy=0;entryX=0;entryY=0.5;entryDx=0;entryDy=0;" edge="1" parent="1" source="mlky6LnuT3fTsB-rKjh9-65" target="BM6KCVaAMcdC4MpgqQDZ-4">
          <mxGeometry width="50" height="50" relative="1" as="geometry">
            <mxPoint x="540" y="-660" as="sourcePoint" />
            <mxPoint x="590" y="-710" as="targetPoint" />
          </mxGeometry>
        </mxCell>
        <mxCell id="mlky6LnuT3fTsB-rKjh9-80" value="" style="edgeStyle=orthogonalEdgeStyle;rounded=0;orthogonalLoop=1;jettySize=auto;html=1;endArrow=none;endFill=0;entryX=1.474;entryY=-0.029;entryDx=0;entryDy=0;entryPerimeter=0;" edge="1" parent="1" source="mlky6LnuT3fTsB-rKjh9-68" target="mlky6LnuT3fTsB-rKjh9-88">
          <mxGeometry relative="1" as="geometry">
            <mxPoint x="130" y="60" as="targetPoint" />
            <Array as="points">
              <mxPoint x="130" y="162" />
              <mxPoint x="129" y="40" />
            </Array>
          </mxGeometry>
        </mxCell>
        <mxCell id="mlky6LnuT3fTsB-rKjh9-82" value="" style="edgeStyle=orthogonalEdgeStyle;rounded=0;orthogonalLoop=1;jettySize=auto;html=1;endArrow=none;endFill=0;entryX=0.038;entryY=-0.027;entryDx=0;entryDy=0;entryPerimeter=0;" edge="1" parent="1" source="mlky6LnuT3fTsB-rKjh9-68" target="CU4H_X6bAWHIYcG4jkGl-23">
          <mxGeometry relative="1" as="geometry">
            <mxPoint x="270" y="273.99999999999955" as="targetPoint" />
            <Array as="points">
              <mxPoint x="235" y="274" />
              <mxPoint x="286" y="275" />
            </Array>
          </mxGeometry>
        </mxCell>
        <mxCell id="mlky6LnuT3fTsB-rKjh9-68" value="A acheté chez" style="shape=rhombus;perimeter=rhombusPerimeter;whiteSpace=wrap;html=1;align=center;" vertex="1" parent="1">
          <mxGeometry x="70" y="244" width="120" height="60" as="geometry" />
        </mxCell>
        <mxCell id="mlky6LnuT3fTsB-rKjh9-83" value="1" style="text;html=1;align=center;verticalAlign=middle;resizable=0;points=[];autosize=1;" vertex="1" parent="1">
          <mxGeometry x="70" y="-110" width="20" height="20" as="geometry" />
        </mxCell>
        <mxCell id="mlky6LnuT3fTsB-rKjh9-84" value="1" style="text;html=1;align=center;verticalAlign=middle;resizable=0;points=[];autosize=1;" vertex="1" parent="1">
          <mxGeometry x="490" y="-540" width="20" height="20" as="geometry" />
        </mxCell>
        <mxCell id="mlky6LnuT3fTsB-rKjh9-87" value="1" style="text;html=1;align=center;verticalAlign=middle;resizable=0;points=[];autosize=1;" vertex="1" parent="1">
          <mxGeometry x="250" y="244" width="20" height="20" as="geometry" />
        </mxCell>
        <mxCell id="mlky6LnuT3fTsB-rKjh9-88" value="n" style="text;html=1;align=center;verticalAlign=middle;resizable=0;points=[];autosize=1;" vertex="1" parent="1">
          <mxGeometry x="100" y="60" width="20" height="20" as="geometry" />
        </mxCell>
        <mxCell id="mlky6LnuT3fTsB-rKjh9-90" value="1" style="text;html=1;align=center;verticalAlign=middle;resizable=0;points=[];autosize=1;" vertex="1" parent="1">
          <mxGeometry x="360" y="328" width="20" height="20" as="geometry" />
        </mxCell>
        <mxCell id="mlky6LnuT3fTsB-rKjh9-91" value="n" style="text;html=1;align=center;verticalAlign=middle;resizable=0;points=[];autosize=1;" vertex="1" parent="1">
          <mxGeometry x="370" y="510" width="20" height="20" as="geometry" />
        </mxCell>
        <mxCell id="mlky6LnuT3fTsB-rKjh9-93" value="n" style="text;html=1;align=center;verticalAlign=middle;resizable=0;points=[];autosize=1;" vertex="1" parent="1">
          <mxGeometry x="180" y="-110" width="20" height="20" as="geometry" />
        </mxCell>
        <mxCell id="mlky6LnuT3fTsB-rKjh9-94" value="1" style="text;html=1;align=center;verticalAlign=middle;resizable=0;points=[];autosize=1;" vertex="1" parent="1">
          <mxGeometry x="260" y="-330" width="20" height="20" as="geometry" />
        </mxCell>
      </root>
    </mxGraphModel>
  </diagram>
</mxfile>
